#!OML:ASF F:\VICON\USERDATA\INSTALL\rory3\rory3.ASF
:FULLY-SPECIFIED
:DEGREES
1503
root -8.97623 19.3789 1.45199 -16.8212 -76.8384 15.7668
lowerback 5.38159 0.00227135 -1.94471
upperback -2.00623 -0.181161 -0.694752
thorax -5.09663 -0.0410752 0.389167
lowerneck -12.6165 -1.30717 -7.84148
upperneck -8.90391 -1.00752 3.97389
head -0.640654 -0.411575 2.60903
rclavicle 3.59055e-015 -4.57205e-015
rhumerus 105.017 -19.4619 -61.3774
rradius 17.3456
rwrist 5.07474
rhand -29.9249 -14.9379
rfingers 7.12502
rthumb -3.24495 -44.8929
lclavicle 3.59055e-015 -4.57205e-015
lhumerus 107.026 22.2816 65.893
lradius 15.4458
lwrist -6.16945
lhand -10.2098 30.1606
lfingers 7.12502
lthumb 15.7816 59.5373
rfemur -7.26037 19.894 17.5567
rtibia 40.4331
rfoot -6.33281 -10.0217
rtoes -13.0175
lfemur -9.88422 -7.61016 -22.0503
ltibia 35.3107
lfoot 3.91068 -1.21259
ltoes -29.1467
1504
root -8.98064 19.2977 1.426 -16.9686 -76.8727 15.6566
lowerback 5.55337 -0.0253905 -2.02252
upperback -1.9581 -0.228915 -0.720373
thorax -5.14306 -0.0624537 0.411217
lowerneck -12.2295 -1.38293 -7.92999
upperneck -8.97464 -1.10799 4.31552
head -0.717348 -0.457778 2.74002
rclavicle 6.85807e-015 -2.38542e-015
rhumerus 104.692 -19.9677 -60.64
rradius 17.6223
rwrist 4.48204
rhand -29.4793 -15.2677
rfingers 7.12502
rthumb -2.81463 -45.2289
lclavicle 6.85807e-015 -2.38542e-015
lhumerus 107.124 22.4496 65.541
lradius 15.7018
lwrist -5.66871
lhand -9.7766 30.3752
lfingers 7.12502
lthumb 16.1988 59.7184
rfemur -6.66614 19.64 17.8422
rtibia 40.3819
rfoot -7.80339 -8.87887
rtoes -14.9095
lfemur -9.48673 -7.14914 -22.0336
ltibia 35.6463
lfoot 2.23396 -1.73397
ltoes -30.2063
1505
root -8.98622 19.2279 1.39672 -17.442 -76.942 15.7822
lowerback 5.87294 -0.0326367 -2.21214
upperback -1.9127 -0.262891 -0.743461
thorax -5.27649 -0.0725083 0.497725
lowerneck -11.7342 -1.38533 -7.87645
upperneck -9.11652 -1.14029 4.51365
head -0.841828 -0.475457 2.79918
rclavicle -1.74682e-014 -9.14409e-015
rhumerus 104.461 -20.3178 -60.143
rradius 17.7519
rwrist 3.9832
rhand -29.4928 -15.2035
rfingers 7.12502
rthumb -2.82767 -45.1645
lclavicle -1.74682e-014 -9.14409e-015
lhumerus 106.769 22.8871 64.45
lradius 16.1896
lwrist -5.12933
lhand -9.61851 30.7101
lfingers 7.12502
lthumb 16.351 60.0408
rfemur -5.94188 19.5321 18.1212
rtibia 40.3017
rfoot -8.92491 -8.74145
rtoes -15.6105
lfemur -8.93301 -6.61936 -22.0221
ltibia 35.7512
lfoot 0.598244 -2.15096
ltoes -27.9077
1506
root -8.99472 19.1693 1.36604 -18.8077 -76.9719 16.7138
lowerback 6.30663 -0.024081 -2.58836
upperback -1.85619 -0.299416 -0.811812
thorax -5.46293 -0.077953 0.642737
lowerneck -11.0468 -1.29725 -7.8753
upperneck -9.38479 -1.06156 4.65938
head -1.04814 -0.437249 2.85632
rclavicle -3.77567e-014 9.54166e-015
rhumerus 104.677 -20.1576 -60.5365
rradius 17.5226
rwrist 4.53583
rhand -29.4647 -14.9314
rfingers 7.12502
rthumb -2.80046 -44.8927
lclavicle -3.77567e-014 9.54166e-015
lhumerus 106.416 23.2708 63.4162
lradius 16.5859
lwrist -4.9554
lhand -9.57008 30.6621
lfingers 7.12502
lthumb 16.3976 59.989
rfemur -5.08475 19.5061 18.1935
rtibia 40.1985
rfoot -10.1136 -8.82466
rtoes -15.4277
lfemur -8.21621 -6.10572 -22.1881
ltibia 35.6683
lfoot -0.606077 -2.18115
ltoes -28.1247
1507
root -9.00119 19.1203 1.34214 -20.22 -76.9234 17.6547
lowerback 6.86694 -0.00888071 -2.82765
upperback -1.83651 -0.328154 -0.936645
thorax -5.76113 -0.0833645 0.651802
lowerneck -10.4137 -1.22271 -7.89761
upperneck -9.64894 -0.996726 4.75012
head -1.24464 -0.405488 2.89907
rclavicle -1.85739e-015 6.36111e-015
rhumerus 104.615 -20.061 -60.7187
rradius 17.4124
rwrist 5.40947
rhand -29.837 -15.0415
rfingers 7.12502
rthumb -3.16007 -44.9979
lclavicle -1.85739e-015 6.36111e-015
lhumerus 105.916 23.5854 62.2724
lradius 16.9766
lwrist -4.42711
lhand -9.77649 30.2848
lfingers 7.12502
lthumb 16.1989 59.628
rfemur -4.29898 19.0466 18.1135
rtibia 40.0696
rfoot -11.2188 -8.21053
rtoes -15.0016
lfemur -7.45824 -5.7574 -22.3808
ltibia 35.4923
lfoot -1.46931 -2.30461
ltoes -28.848
1508
root -9.00616 19.0821 1.32358 -20.5339 -76.931 17.5163
lowerback 7.34547 -0.0098052 -2.76475
upperback -1.78866 -0.340963 -0.947794
thorax -5.98373 -0.0897053 0.607673
lowerneck -9.9737 -1.16074 -7.97533
upperneck -9.88814 -0.942117 4.6641
head -1.40188 -0.376059 2.89037
rclavicle -3.26504e-014 -3.37934e-015
rhumerus 103.776 -20.6246 -59.1456
rradius 17.7751
rwrist 4.61299
rhand -30.3032 -15.17
rfingers 7.12502
rthumb -3.61029 -45.1192
lclavicle -3.26504e-014 -3.37934e-015
lhumerus 105.394 23.8375 61.3874
lradius 17.4098
lwrist -3.93925
lhand -10.1295 29.5696
lfingers 7.12502
lthumb 15.859 58.9401
rfemur -3.65563 18.3681 18.2007
rtibia 39.9222
rfoot -11.9895 -7.17
rtoes -15.2044
lfemur -6.75262 -5.65377 -22.3297
ltibia 35.3112
lfoot -2.17226 -2.54072
ltoes -27.8913
1509
root -9.01258 19.0603 1.3038 -20.2945 -77.0002 16.9825
lowerback 7.55012 -0.0406255 -2.5924
upperback -1.71905 -0.368275 -0.910713
thorax -6.0266 -0.108332 0.553652
lowerneck -9.71416 -1.03456 -7.91774
upperneck -10.0768 -0.818559 4.31231
head -1.51792 -0.314452 2.76487
rclavicle -2.45996e-015 -2.28602e-015
rhumerus 103.175 -21.017 -57.8263
rradius 18.1042
rwrist 3.60626
rhand -29.4535 -15.7546
rfingers 7.12502
rthumb -2.78965 -45.7161
lclavicle -2.45996e-015 -2.28602e-015
lhumerus 104.471 24.4558 59.7992
lradius 18.0507
lwrist -2.59503
lhand -10.4053 29.2703
lfingers 7.12502
lthumb 15.5933 58.6617
rfemur -3.24913 17.8224 18.329
rtibia 39.765
rfoot -12.2561 -6.50076
rtoes -16.3486
lfemur -6.27248 -5.66031 -22.1459
ltibia 35.1802
lfoot -2.62056 -2.59344
ltoes -27.868
1510
root -9.02241 19.0577 1.28146 -19.9716 -77.1715 16.6828
lowerback 7.35692 -0.0472592 -2.44208
upperback -1.71599 -0.354 -0.887521
thorax -5.91384 -0.107283 0.491103
lowerneck -9.69608 -0.979521 -7.95007
upperneck -10.1384 -0.759398 4.08621
head -1.54622 -0.282457 2.69544
rclavicle 9.16894e-015 6.95746e-015
rhumerus 103.154 -20.8971 -57.7646
rradius 18.1995
rwrist 3.58814
rhand -27.768 -16.8367
rfingers 7.12502
rthumb -1.16186 -46.8133
lclavicle 9.16894e-015 6.95746e-015
lhumerus 103.324 25.133 57.8821
lradius 18.6827
lwrist -1.28805
lhand -10.6399 29.1004
lfingers 7.12502
lthumb 15.3673 58.5093
rfemur -3.28021 17.4229 18.285
rtibia 39.5981
rfoot -12.1307 -5.92945
rtoes -16.1921
lfemur -6.22328 -5.63565 -21.9269
ltibia 35.1241
lfoot -2.73891 -2.37945
ltoes -27.9058
